<svg width="34" height="34" viewBox="0 0 34 34" fill="none" xmlns="http://www.w3.org/2000/svg">
<path d="M17 21L15 19C13.8954 17.8954 12.1046 17.8954 11 19C9.89543 20.1046 9.89543 21.8954 11 23L17 29L23 23C24.1046 21.8954 24.1046 20.1046 23 19C21.8954 17.8954 20.1046 17.8954 19 19L17 21Z" stroke="black" stroke-width="2" stroke-linecap="round"/>
<path d="M21 13V7.04721C21 7.01616 21.0072 6.98554 21.0211 6.95777L23.7722 1.45554C23.8535 1.29296 23.6933 1.115 23.5231 1.17883L16.0502 3.98117C16.0173 3.99351 15.9818 3.99696 15.9471 3.99118L10.2858 3.04764C10.1478 3.02463 10.0294 3.1469 10.0568 3.28414L10.9961 7.98058C10.9987 7.9935 11 8.00663 11 8.0198V13M5 15.883V28.9172C5 28.9702 4.97893 29.0211 4.94142 29.0586L1.34142 32.6586C1.21543 32.7846 1.30466 33 1.48284 33H32.5172C32.6953 33 32.7846 32.7846 32.6586 32.6586L29.0586 29.0586C29.0211 29.0211 29 28.9702 29 28.9172V15.883C29 14.1613 27.8983 12.6328 26.2649 12.0883L18.8974 9.63246C17.6658 9.22192 16.3342 9.22192 15.1026 9.63246L7.73509 12.0883C6.10172 12.6328 5 14.1613 5 15.883Z" stroke="black" stroke-width="2" stroke-linecap="round"/>
</svg>
