<svg width="34" height="34" viewBox="0 0 34 34" fill="none" xmlns="http://www.w3.org/2000/svg">
<path d="M1 12.8V1.2C1 1.08954 1.08954 1 1.2 1H32.8C32.9105 1 33 1.08954 33 1.2V12.8C33 12.9105 32.9105 13 32.8 13H25.2C25.0895 13 25 13.0895 25 13.2V20.8C25 20.9105 25.0895 21 25.2 21H32.8C32.9105 21 33 21.0895 33 21.2V32.8C33 32.9105 32.9105 33 32.8 33H1.2C1.08954 33 1 32.9105 1 32.8V21.2C1 21.0895 1.08954 21 1.2 21H8.8C8.91046 21 9 20.9105 9 20.8V13.2C9 13.0895 8.91046 13 8.8 13H1.2C1.08954 13 1 12.9105 1 12.8Z" stroke="#2E3830" stroke-width="2" stroke-linecap="round"/>
<path d="M13 9L17.2353 16.4118M21 23L17.2353 16.4118M13 23L17.2353 16.4118M22 9L17.2353 16.4118M12 16L17.2353 16.4118M17.2353 16.4118L22 17" stroke="#2E3830" stroke-width="2" stroke-linecap="round"/>
</svg>
