<svg width="34" height="34" viewBox="0 0 34 34" fill="none" xmlns="http://www.w3.org/2000/svg">
<path d="M1 33H5M33 33H29M5 33L1.02111 25.0422C1.00723 25.0145 1 24.9838 1 24.9528V17.0828C1 17.0298 1.02107 16.9789 1.05858 16.9414L8.94142 9.05858C8.97893 9.02107 9.0298 9 9.08284 9H24.9172C24.9702 9 25.0211 9.02107 25.0586 9.05858L32.9414 16.9414C32.9789 16.9789 33 17.0298 33 17.0828V24.9528C33 24.9838 32.9928 25.0145 32.9789 25.0422L29 33M5 33H29M13 17V1.2C13 1.08954 13.0895 1 13.2 1H20.8C20.9105 1 21 1.08954 21 1.2V17" stroke="#2E3830" stroke-width="2" stroke-linecap="round"/>
</svg>
