<svg width="64" height="64" viewBox="0 0 64 64" fill="none" xmlns="http://www.w3.org/2000/svg">
<path d="M31.5285 16.1765L41.6911 3.22825L58.8874 8.82588V23.6085L50.3686 32.9861L49.9915 33.4013L50.4471 33.7285L63.0854 42.8019L47.6019 51.9329L47.5566 51.9597L47.5179 51.9952L35.3941 63.117L31.6075 52.1998L31.4571 51.7661L31.0122 51.879L17.4626 55.317L4.40118 58.6312L0.564515 43.0444L12.9848 33.7222L13.5176 33.3223L12.9848 32.9224L0.56912 23.6036L4.46911 8.78183L17.4851 0.652283L30.7549 16.1925L31.1514 16.6568L31.5285 16.1765Z" fill="#E7FE58" stroke="#788B00"/>
<rect x="15" y="17" width="32" height="32" stroke="black"/>
<rect x="15" y="17" width="32" height="32" stroke="black"/>
<path d="M43 33H19V35.25C19 37.6107 20.1115 39.8336 22 41.25L24.7796 43.3347C24.9183 43.4388 25 43.6021 25 43.7755C25 44.4518 25.5482 45 26.2245 45H35.7755C36.4518 45 37 44.4518 37 43.7755C37 43.6021 37.0817 43.4388 37.2204 43.3347L40 41.25C41.8885 39.8336 43 37.6107 43 35.25V33Z" stroke="black" stroke-linecap="round"/>
<path d="M27.1439 26.9925L26.5911 30.8625C26.5388 31.2283 26.2256 31.5 25.8561 31.5C25.4042 31.5 25.0572 31.0998 25.1211 30.6525L25.5881 27.3834C25.6955 26.6316 25.6955 25.8684 25.5881 25.1166L25.1211 21.8475C25.0572 21.4002 25.4042 21 25.8561 21C26.2256 21 26.5388 21.2717 26.5911 21.6375L27.1439 25.5075C27.2143 26 27.2143 26.5 27.1439 26.9925Z" stroke="black" stroke-width="0.5" stroke-linecap="round"/>
<path d="M33.1439 26.9925L32.5911 30.8625C32.5388 31.2283 32.2256 31.5 31.8561 31.5C31.4042 31.5 31.0572 31.0998 31.1211 30.6525L31.5881 27.3834C31.6955 26.6316 31.6955 25.8684 31.5881 25.1166L31.1211 21.8475C31.0572 21.4002 31.4042 21 31.8561 21C32.2256 21 32.5388 21.2717 32.5911 21.6375L33.1439 25.5075C33.2143 26 33.2143 26.5 33.1439 26.9925Z" stroke="black" stroke-width="0.5" stroke-linecap="round"/>
<path d="M39.1439 26.9925L38.5911 30.8625C38.5388 31.2283 38.2256 31.5 37.8561 31.5C37.4042 31.5 37.0572 31.0998 37.1211 30.6525L37.5881 27.3834C37.6955 26.6316 37.6955 25.8684 37.5881 25.1166L37.1211 21.8475C37.0572 21.4002 37.4042 21 37.8561 21C38.2256 21 38.5388 21.2717 38.5911 21.6375L39.1439 25.5075C39.2143 26 39.2143 26.5 39.1439 26.9925Z" stroke="black" stroke-width="0.5" stroke-linecap="round"/>
</svg>
