<svg width="66" height="60" viewBox="0 0 66 60" fill="none" xmlns="http://www.w3.org/2000/svg">
<path d="M23.743 44.1915L12.9393 38.0213L1.5 44.1915L19.9299 59L23.743 44.1915Z" fill="black"/>
<path d="M23.743 44.1915L38.9159 39.1117C41.073 38.3895 43.3328 38.0213 45.6075 38.0213H54.0295C55.3669 38.0213 56.6262 37.3912 57.428 36.3207V36.3207C59.2424 33.8985 58.0128 30.4099 55.0806 29.6607L49.1636 28.1489L61.3514 25.1906C64.8035 24.3527 65.901 19.9873 63.2556 17.6165V17.6165C62.0181 16.5073 60.2623 16.1876 58.7132 16.7892L42.1729 23.2128L52.3371 13.7929C54.2566 12.014 53.9532 8.89541 51.7267 7.51983V7.51983C50.2122 6.58409 48.2594 6.77408 46.9537 7.9842L35.1822 18.8936L40.4566 5.39314C41.2818 3.28093 39.7241 1 37.4564 1V1C36.0931 1 34.8774 1.85831 34.4211 3.14301L28.8271 18.8936L25.3162 9.94579C24.5973 8.11343 22.1951 7.68952 20.8924 9.16512V9.16512C20.2934 9.84359 20.085 10.7822 20.3405 11.6504L21.9444 17.1007C23.0782 20.9538 22.3551 25.1151 19.9879 28.3598L12.9393 38.0213M23.743 44.1915L12.9393 38.0213M23.743 44.1915L19.9299 59L1.5 44.1915L12.9393 38.0213" stroke="black"/>
</svg>
