<svg width="64" height="64" viewBox="0 0 64 64" fill="none" xmlns="http://www.w3.org/2000/svg">
<path d="M31.5285 16.1765L41.6911 3.22825L58.8874 8.82588V23.6085L50.3686 32.9861L49.9915 33.4013L50.4471 33.7285L63.0854 42.8019L47.6019 51.9329L47.5566 51.9597L47.5179 51.9952L35.3941 63.117L31.6075 52.1998L31.4571 51.7661L31.0122 51.879L17.4626 55.317L4.40118 58.6312L0.564515 43.0444L12.9848 33.7222L13.5176 33.3223L12.9848 32.9224L0.56912 23.6036L4.46911 8.78183L17.4851 0.652283L30.7549 16.1925L31.1514 16.6568L31.5285 16.1765Z" fill="#58FE58" stroke="#008B00"/>
<rect x="15" y="17" width="32" height="32" stroke="black"/>
<path d="M19 33H22L25 29L28 37L31 27L34 41L37 25L40 33" stroke="#080808" stroke-linecap="round"/>
<path d="M42.6367 37.4844L40 41L37.3633 37.4844C37.1275 37.17 37 36.7875 37 36.3944C37 34.9435 38.6171 34.0781 39.8244 34.8829L40 35L40.1756 34.8829C41.3829 34.0781 43 34.9435 43 36.3944C43 36.7875 42.8725 37.17 42.6367 37.4844Z" stroke="#080808" stroke-width="0.5" stroke-linecap="round"/>
</svg>
