<svg width="108" height="82" viewBox="0 0 108 82" fill="none" xmlns="http://www.w3.org/2000/svg">
<path d="M82.8383 14.1637C80.625 12.2811 77.4789 11.9614 74.9323 13.3605L70.9459 15.5505L63.5171 20.8165L46.6979 32.7391C43.4251 35.0591 44.0219 40.0826 47.7473 41.571C49.3967 42.23 51.2708 41.9765 52.6858 40.903L58.6216 36.3997L74.2702 24.5278C77.0694 22.4042 81.009 22.6847 83.4791 25.1833L94.5676 36.3997L98.3549 40.2308C99.7852 41.6776 101.96 42.0925 103.822 41.2739C107.14 39.8155 107.789 35.3877 105.028 33.0391L82.8383 14.1637Z" fill="black"/>
<path d="M54.2002 2.05764C51.9195 0.219959 48.7358 -0.00348234 46.2207 1.49762L22.6757 15.5505L2.52569 29.7199C-0.0238492 31.5127 0.188798 35.3573 2.9205 36.8581C4.32619 37.6303 6.04845 37.5374 7.36287 36.6183L16.5135 30.2202L45.3805 10.0363C48.2568 8.02525 52.1777 8.45495 54.5501 11.0412L63.5171 20.8165L70.9459 15.5505L54.2002 2.05764Z" fill="black"/>
<path d="M70.9459 15.5505L54.2002 2.05764C51.9195 0.219959 48.7358 -0.00348233 46.2207 1.49762L22.6757 15.5505L2.52569 29.7199C-0.0238493 31.5127 0.188798 35.3573 2.9205 36.8581V36.8581C4.32619 37.6303 6.04845 37.5374 7.36287 36.6183L16.5135 30.2202M70.9459 15.5505L74.9323 13.3605C77.4789 11.9614 80.625 12.2811 82.8383 14.1637L105.028 33.0391C107.789 35.3877 107.14 39.8155 103.822 41.2739V41.2739C101.96 42.0925 99.7852 41.6776 98.3549 40.2308L94.5676 36.3997M70.9459 15.5505L63.5171 20.8165M63.5171 20.8165L46.6979 32.7391C43.4251 35.0591 44.0219 40.0826 47.7473 41.571V41.571C49.3967 42.23 51.2708 41.9765 52.6858 40.903L58.6216 36.3997M63.5171 20.8165L54.5501 11.0412C52.1777 8.45495 48.2568 8.02525 45.3805 10.0363L16.5135 30.2202M16.5135 30.2202V74C16.5135 77.866 19.6475 81 23.5135 81H58.6216M94.5676 36.3997L83.4791 25.1833C81.009 22.6847 77.0694 22.4042 74.2702 24.5278L58.6216 36.3997M94.5676 36.3997V74C94.5676 77.866 91.4336 81 87.5676 81H58.6216M58.6216 36.3997V81M86.3513 55.945V55.6514C86.3513 51.7854 83.2173 48.6514 79.3513 48.6514H77.9459C74.08 48.6514 70.9459 51.7854 70.9459 55.6514V55.945C70.9459 59.8109 74.08 62.945 77.9459 62.945H79.3513C83.2173 62.945 86.3513 59.8109 86.3513 55.945ZM29.6757 62.945H32.1081C35.9741 62.945 39.1081 59.8109 39.1081 55.945V55.6514C39.1081 51.7854 35.9741 48.6514 32.1081 48.6514H29.6757C25.8097 48.6514 22.6757 51.7854 22.6757 55.6514V55.945C22.6757 59.8109 25.8097 62.945 29.6757 62.945Z" stroke="black"/>
</svg>
