<svg width="57" height="58" viewBox="0 0 57 58" fill="none" xmlns="http://www.w3.org/2000/svg">
<path d="M18.5194 24.8845L34.5819 21.3835L31.9245 1L14.6007 7.38926L18.5194 24.8845Z" fill="black"/>
<path d="M0.5 28.8121L9.36331 39.7114M0.5 28.8121V41.0529C0.5 45.0269 1.97891 48.8587 4.6488 51.8022L9.36331 57M0.5 28.8121L18.5194 24.8845M56.5 28.8121L49.4165 23.6495C45.7219 20.9568 41.052 19.9732 36.5852 20.9468L34.5819 21.3835M56.5 28.8121L9.36331 39.7114M56.5 28.8121V31.9815C56.5 39.2057 51.659 45.5338 44.6864 47.4241L9.36331 57M9.36331 39.7114V57M18.5194 24.8845L34.5819 21.3835M18.5194 24.8845L14.6007 7.38926L31.9245 1L34.5819 21.3835M18.5194 24.8845L20.241 32.5705L35.5504 28.8121L34.5819 21.3835" stroke="black"/>
<path d="M18.6294 31.0671L38.3704 26.1812L40.7877 28.4362L21.0467 33.6979L18.6294 31.0671Z" fill="black" stroke="black"/>
</svg>
