<svg width="40" height="40" viewBox="0 0 40 40" fill="none" xmlns="http://www.w3.org/2000/svg">
<path d="M38.285 27.4077L28.6438 23.0871C28.207 22.8999 27.7304 22.8247 27.2571 22.8682C26.7839 22.9116 26.329 23.0725 25.9335 23.3361C25.8934 23.3619 25.8552 23.3905 25.8193 23.4218L20.7803 27.7077C20.728 27.7362 20.6698 27.7521 20.6103 27.7543C20.5508 27.7564 20.4916 27.7446 20.4374 27.7199C17.1986 26.1566 13.8433 22.8218 12.2739 19.6278C12.2478 19.5744 12.2342 19.5158 12.2342 19.4564C12.2342 19.3969 12.2478 19.3383 12.2739 19.2849L16.574 14.1827C16.6049 14.145 16.6335 14.1054 16.6598 14.0643C16.9198 13.6674 17.0768 13.212 17.1167 12.7391C17.1566 12.2663 17.0781 11.791 16.8883 11.3561L12.5984 1.73124C12.3548 1.16307 11.9335 0.689247 11.3977 0.380873C10.8619 0.0724998 10.2405 -0.0537849 9.62688 0.0209722C6.9599 0.37159 4.51184 1.68131 2.74016 3.70539C0.968487 5.72947 -0.00556688 8.3294 2.39342e-05 11.0193C2.39342e-05 26.9995 13.0005 40 28.9806 40C31.6704 40.0051 34.2701 39.0309 36.2941 37.2593C38.318 35.4877 39.6279 33.0399 39.9789 30.3731C40.0535 29.7623 39.929 29.1438 39.6237 28.6095C39.3185 28.0752 38.849 27.6537 38.285 27.4077ZM28.9806 37.5509C14.3515 37.5509 2.44909 25.6484 2.44909 11.0193C2.44226 8.92523 3.1981 6.90028 4.57537 5.32282C5.95265 3.74535 7.85714 2.72329 9.93301 2.44759H9.97995C10.0622 2.44913 10.1421 2.47548 10.2091 2.52318C10.2761 2.57089 10.3271 2.63773 10.3555 2.71495L14.6617 12.3296C14.6863 12.383 14.699 12.4412 14.699 12.5C14.699 12.5588 14.6863 12.617 14.6617 12.6704L10.3534 17.7849C10.3213 17.8214 10.292 17.8603 10.2657 17.9012C9.99609 18.3128 9.83733 18.787 9.8048 19.2779C9.77226 19.7688 9.86704 20.2598 10.08 20.7034C11.8902 24.4096 15.625 28.1159 19.3721 29.9261C19.8182 30.1379 20.3116 30.2304 20.8042 30.1946C21.2967 30.1588 21.7715 29.996 22.1824 29.7221C22.2212 29.6955 22.26 29.6669 22.2967 29.6363L27.3336 25.3505C27.3833 25.3237 27.4383 25.3081 27.4946 25.3046C27.551 25.301 27.6075 25.3097 27.6601 25.3301L37.3033 29.6506C37.3821 29.6842 37.4483 29.7416 37.4926 29.8149C37.5369 29.8881 37.5571 29.9735 37.5503 30.0588C37.276 32.1356 36.2549 34.0416 34.6778 35.4204C33.1007 36.7992 31.0754 37.5565 28.9806 37.5509Z" fill="#374151"/>
</svg>
