<svg width="34" height="34" viewBox="0 0 34 34" fill="none" xmlns="http://www.w3.org/2000/svg">
<path d="M29 33V9.2C29 9.08954 29.0895 9 29.2 9H32.1528C32.3638 9 32.431 8.7155 32.2422 8.62111L17.0894 1.04472C17.0331 1.01657 16.9669 1.01657 16.9106 1.04472L3 8M29 33H33M29 33H21M5 33V9.2C5 9.08954 4.91046 9 4.8 9H1.84721C1.63617 9 1.56901 8.7155 1.75777 8.62111L3 8M5 33H1M5 33H13M3 1V8M13 33V17.2C13 17.0895 13.0895 17 13.2 17H20.8C20.9105 17 21 17.0895 21 17.2V33M13 33H21" stroke="#2E3830" stroke-width="2" stroke-linecap="round"/>
</svg>
