<svg width="64" height="64" viewBox="0 0 64 64" fill="none" xmlns="http://www.w3.org/2000/svg">
<path d="M31.5285 16.1765L41.6911 3.22825L58.8874 8.82588V23.6085L50.3686 32.9861L49.9915 33.4013L50.4471 33.7285L63.0854 42.8019L47.6019 51.9329L47.5566 51.9597L47.5179 51.9952L35.3941 63.117L31.6075 52.1998L31.4571 51.7661L31.0122 51.879L17.4626 55.317L4.40118 58.6312L0.564515 43.0444L12.9848 33.7222L13.5176 33.3223L12.9848 32.9224L0.56912 23.6036L4.46911 8.78183L17.4851 0.652283L30.7549 16.1925L31.1514 16.6568L31.5285 16.1765Z" fill="#5858FE" stroke="#00008B"/>
<rect x="15" y="17" width="32" height="32" stroke="black"/>
<path d="M31 30L31.9667 31.8011C32.0721 31.9975 32.1627 32.2014 32.2378 32.4112L32.3428 32.7047C32.4468 32.9955 32.5 33.302 32.5 33.6108V33.8679C32.5 34.0816 32.4543 34.2928 32.3661 34.4874C31.8337 35.6614 30.1663 35.6614 29.6339 34.4874C29.5457 34.2928 29.5 34.0816 29.5 33.8679V33.6108C29.5 33.302 29.5532 32.9955 29.6572 32.7047L29.7622 32.4112C29.8373 32.2014 29.9279 31.9975 30.0333 31.8011L31 30Z" stroke="#080808" stroke-width="0.5" stroke-linecap="round"/>
<path d="M20.5 25.5L24.9214 26.9738C24.9717 26.9906 25.0267 26.9867 25.0741 26.963L27.9106 25.5447C27.9669 25.5166 28.0331 25.5166 28.0894 25.5447L30.9106 26.9553C30.9669 26.9834 31.0331 26.9834 31.0894 26.9553L33.9106 25.5447C33.9669 25.5166 34.0331 25.5166 34.0894 25.5447L36.9296 26.9648C36.9749 26.9874 37.027 26.9921 37.0755 26.9778L42.1 25.5M42.1 25.5L42.9522 21.2392C42.9769 21.1155 42.8822 21 42.756 21H19.244C19.1178 21 19.0231 21.1155 19.0478 21.2392L21.9678 35.8392C21.9865 35.9327 22.0686 36 22.164 36H27.8C27.9105 36 28 36.0895 28 36.2V41.8C28 41.9105 27.9105 42 27.8 42H25.8472C25.6362 42 25.569 42.2845 25.7578 42.3789L30.9106 44.9553C30.9669 44.9834 31.0331 44.9834 31.0894 44.9553L36.2422 42.3789C36.431 42.2845 36.3638 42 36.1528 42H34.2C34.0895 42 34 41.9105 34 41.8V36.2C34 36.0895 34.0895 36 34.2 36H39.836C39.9314 36 40.0135 35.9327 40.0322 35.8392L42.1 25.5Z" stroke="#080808" stroke-linecap="round"/>
</svg>
